<svg width="25" height="25" viewBox="0 0 25 25" fill="none" xmlns="http://www.w3.org/2000/svg">
<path d="M5.46875 11.7188H21.0938C21.301 11.7188 21.4997 11.8011 21.6462 11.9476C21.7927 12.0941 21.875 12.2928 21.875 12.5C21.875 12.7072 21.7927 12.9059 21.6462 13.0524C21.4997 13.1989 21.301 13.2812 21.0938 13.2812H5.46875C5.26155 13.2812 5.06284 13.1989 4.91632 13.0524C4.76981 12.9059 4.6875 12.7072 4.6875 12.5C4.6875 12.2928 4.76981 12.0941 4.91632 11.9476C5.06284 11.8011 5.26155 11.7188 5.46875 11.7188Z" fill="white"/>
<path d="M5.79212 12.5L12.2718 18.9781C12.4185 19.1248 12.5009 19.3238 12.5009 19.5313C12.5009 19.7387 12.4185 19.9377 12.2718 20.0844C12.1251 20.2311 11.9261 20.3135 11.7187 20.3135C11.5112 20.3135 11.3123 20.2311 11.1656 20.0844L4.13431 13.0531C4.06155 12.9806 4.00383 12.8944 3.96444 12.7994C3.92506 12.7045 3.90479 12.6028 3.90479 12.5C3.90479 12.3972 3.92506 12.2955 3.96444 12.2006C4.00383 12.1057 4.06155 12.0195 4.13431 11.9469L11.1656 4.91564C11.3123 4.76894 11.5112 4.68652 11.7187 4.68652C11.9261 4.68652 12.1251 4.76894 12.2718 4.91564C12.4185 5.06233 12.5009 5.2613 12.5009 5.46876C12.5009 5.67622 12.4185 5.87519 12.2718 6.02189L5.79212 12.5Z" fill="white"/>
</svg>
