<svg width="50" height="50" viewBox="0 0 50 50" fill="none" xmlns="http://www.w3.org/2000/svg">
<path d="M44.916 5.20022C44.7733 5.04343 44.6003 4.91719 44.4074 4.82915C44.2146 4.7411 44.0059 4.69307 43.7939 4.68796C43.582 4.68284 43.3712 4.72076 43.1743 4.79941C42.9774 4.87805 42.7985 4.9958 42.6484 5.14554L41.4404 6.34768C41.294 6.49418 41.2118 6.69282 41.2118 6.89993C41.2118 7.10704 41.294 7.30568 41.4404 7.45218L42.5478 8.55765C42.6204 8.63058 42.7067 8.68845 42.8018 8.72794C42.8968 8.76743 42.9987 8.78776 43.1016 8.78776C43.2045 8.78776 43.3063 8.76743 43.4014 8.72794C43.4964 8.68845 43.5827 8.63058 43.6553 8.55765L44.833 7.38577C45.4287 6.79104 45.4844 5.82229 44.916 5.20022ZM38.998 8.78909L21.3691 26.3867C21.2623 26.4932 21.1846 26.6254 21.1436 26.7705L20.3281 29.1992C20.3086 29.2651 20.3072 29.3351 20.3241 29.4017C20.341 29.4683 20.3756 29.5292 20.4242 29.5778C20.4728 29.6264 20.5336 29.661 20.6003 29.6779C20.6669 29.6948 20.7368 29.6934 20.8027 29.6739L23.2295 28.8584C23.3747 28.8174 23.5068 28.7397 23.6133 28.6328L41.2109 11.002C41.3737 10.8374 41.4651 10.6153 41.4651 10.3838C41.4651 10.1523 41.3737 9.9302 41.2109 9.76565L40.2393 8.78909C40.0745 8.6248 39.8513 8.53254 39.6187 8.53254C39.386 8.53254 39.1628 8.6248 38.998 8.78909Z" fill="white"/>
<path d="M37.7285 18.9121L25.8252 30.8389C25.3651 31.3 24.7997 31.6422 24.1777 31.8359L21.6484 32.6826C21.0482 32.8521 20.4136 32.8585 19.81 32.7011C19.2065 32.5438 18.6558 32.2283 18.2147 31.7872C17.7737 31.3462 17.4582 30.7955 17.3008 30.1919C17.1434 29.5884 17.1498 28.9538 17.3193 28.3535L18.166 25.8242C18.3592 25.2025 18.7007 24.6371 19.1611 24.1768L31.0879 12.2715C31.1972 12.1623 31.2717 12.0231 31.3019 11.8716C31.3322 11.72 31.3168 11.5629 31.2577 11.4201C31.1986 11.2774 31.0986 11.1553 30.9701 11.0694C30.8417 10.9835 30.6907 10.9376 30.5361 10.9375H10.1562C8.70585 10.9375 7.31485 11.5137 6.28926 12.5393C5.26367 13.5648 4.6875 14.9558 4.6875 16.4062V39.8438C4.6875 41.2942 5.26367 42.6852 6.28926 43.7107C7.31485 44.7363 8.70585 45.3125 10.1562 45.3125H33.5938C35.0442 45.3125 36.4352 44.7363 37.4607 43.7107C38.4863 42.6852 39.0625 41.2942 39.0625 39.8438V19.4639C39.0624 19.3093 39.0165 19.1583 38.9306 19.0299C38.8447 18.9014 38.7226 18.8014 38.5799 18.7423C38.4371 18.6832 38.28 18.6678 38.1284 18.6981C37.9769 18.7283 37.8377 18.8028 37.7285 18.9121Z" fill="white"/>
</svg>
