<svg width="35" height="35" viewBox="0 0 35 35" fill="none" xmlns="http://www.w3.org/2000/svg">
<path fill-rule="evenodd" clip-rule="evenodd" d="M17.5001 2.9165C19.4152 2.91649 21.3115 3.2937 23.0809 4.02657C24.8502 4.75945 26.4579 5.83365 27.8121 7.18783C29.1663 8.54202 30.2405 10.1497 30.9733 11.919C31.7062 13.6883 32.0834 15.5847 32.0834 17.4998C32.0834 25.554 25.5542 32.0832 17.5001 32.0832C9.44596 32.0832 2.91675 25.554 2.91675 17.4998C2.91675 9.44571 9.44596 2.9165 17.5001 2.9165ZM18.9584 18.9582H16.0417C12.4313 18.9582 9.33173 21.1448 7.99482 24.2662C10.1101 27.2323 13.5792 29.1665 17.5001 29.1665C21.4209 29.1665 24.89 27.2323 27.0054 24.266C25.6685 21.1448 22.5688 18.9582 18.9584 18.9582ZM17.5001 7.2915C15.0838 7.2915 13.1251 9.25027 13.1251 11.6665C13.1251 14.0827 15.0838 16.0415 17.5001 16.0415C19.9163 16.0415 21.8751 14.0827 21.8751 11.6665C21.8751 9.25027 19.9164 7.2915 17.5001 7.2915Z" fill="white"/>
</svg>
